<svg xmlns="http://www.w3.org/2000/svg" width="24" height="24" viewBox="0 0 24 24"><path d="M12 2c5.514 0 10 4.486 10 10s-4.486 10-10 10-10-4.486-10-10 4.486-10 10-10zm0-2c-6.627 0-12 5.373-12 12s5.373 12 12 12 12-5.373 12-12-5.373-12-12-12zm6 5.999l-5.621 2.986c-.899-.104-1.806.191-2.474.859-.662.663-.95 1.561-.862 2.428l-3.043 5.728 5.724-3.042c.884.089 1.772-.205 2.432-.865.634-.634.969-1.524.859-2.473l2.985-5.621zm-5.97 7.22c-.689 0-1.25-.559-1.25-1.249-.001-.691.559-1.251 1.25-1.25.69 0 1.25.56 1.25 1.25-.001.689-.56 1.249-1.25 1.249z"/></svg>