<svg xmlns="http://www.w3.org/2000/svg" width="24" height="24" viewBox="0 0 24 24"><path d="M12 2c5.514 0 10 4.486 10 10s-4.486 10-10 10-10-4.486-10-10 4.486-10 10-10zm0-2c-6.627 0-12 5.373-12 12s5.373 12 12 12 12-5.373 12-12-5.373-12-12-12zm4 17h-8v-2h8v2zm-.499-6.296l-1.298 1.296-1.203-1.204 1.298-1.296-1.298-1.296 1.203-1.204 1.298 1.296 1.296-1.296 1.203 1.204-1.297 1.296 1.297 1.296-1.202 1.204-1.297-1.296zm-7 0l-1.298 1.296-1.203-1.204 1.298-1.296-1.298-1.296 1.203-1.204 1.298 1.296 1.296-1.296 1.203 1.204-1.297 1.296 1.297 1.296-1.202 1.204-1.297-1.296z"/></svg>